├é┬▓├é┬▓├é┬▓├é┬▓├é┬▓├é┬▓├é┬▓├é┬▓├é┬▓├é┬▓├é┬▓├é┬▓├é┬▓├é┬▓├é┬▓├é┬▓├é┬▓├é┬▓├é┬▓├é┬▓├é┬▓├é┬▓├é┬▓├é┬▓├é┬▓├é┬▓├é┬▓├é┬▓├é┬▓├é┬▓>>www.tornster.com<<├é┬▓├é┬▓├é┬▓├é┬▓├é┬▓├é┬▓├é┬▓├é┬▓├é┬▓├é┬▓├é┬▓├é┬▓├é┬▓├é┬▓├é┬▓├é┬▓├é┬▓├é┬▓├é┬▓├é┬▓├é┬▓├é┬▓├é┬▓├é┬▓├é┬▓├é┬▓├é┬▓├é┬▓├é┬▓├é┬▓
├é┬▓                                                                              ├é┬▓
├é┬▓ INFO:                                                                        ├é┬▓
├é┬▓                                                                              ├é┬▓
├é┬▓ General                                                                      ├é┬▓
├é┬▓ Complete name                    : Million Dollar Baby                       ├é┬▓
├é┬▓ Genre                            : Drama / Sport                             ├é┬▓
├é┬▓ Format                           : AVI                                       ├é┬▓
├é┬▓ Format/Info                      : Audio Video Interleave                    ├é┬▓
├é┬▓ File size                        : 1.56 GiB                                  ├é┬▓
├é┬▓ Duration                         : 2h 07mn                                   ├é┬▓
├é┬▓ Overall bit rate                 : 1 761 Kbps                                ├é┬▓
├é┬▓ Writing application              : VirtualDubMod 1.5.4.1 (build 2178/release)├é┬▓
├é┬▓ Writing library                  : VirtualDubMod build 2178/release          ├é┬▓
├é┬▓                                                                              ├é┬▓
├é┬▓ Video                                                                        ├é┬▓
├é┬▓ Format                           : MPEG-4 Visual                             ├é┬▓
├é┬▓ Format settings, BVOP            : Yes                                       ├é┬▓
├é┬▓ Format settings, QPel            : No                                        ├é┬▓
├é┬▓ Format settings, GMC             : No warppoints                             ├é┬▓
├é┬▓ Format settings, Matrix          : Default                                   ├é┬▓
├é┬▓ Codec ID                         : DX50                                      ├é┬▓
├é┬▓ Codec ID/Hint                    : DivX 5                                    ├é┬▓
├é┬▓ Duration                         : 2h 07mn                                   ├é┬▓
├é┬▓ Bit rate                         : 1 306 Kbps                                ├é┬▓
├é┬▓ Width                            : 720 pixels                                ├é┬▓
├é┬▓ Height                           : 304 pixels                                ├é┬▓
├é┬▓ Display aspect ratio             : 2.35                                      ├é┬▓
├é┬▓ Frame rate                       : 25.000 fps                                ├é┬▓
├é┬▓ Resolution                       : 24 bits                                   ├é┬▓
├é┬▓ Colorimetry                      : 4:2:0                                     ├é┬▓
├é┬▓ Scan type                        : Progressive                               ├é┬▓
├é┬▓ Bits/(Pixel*Frame)               : 0.239                                     ├é┬▓
├é┬▓ Stream size                      : 1.16 GiB (74%)                            ├é┬▓
├é┬▓ Writing library                  : DivX 2816                                 ├é┬▓
├é┬▓                                                                              ├é┬▓
├é┬▓ Audio                                                                        ├é┬▓
├é┬▓ Format                           : AC-3                                      ├é┬▓
├é┬▓ Format/Info                      : Audio Coding 3                            ├é┬▓
├é┬▓ Codec ID                         : 2000                                      ├é┬▓
├é┬▓ Duration                         : 2h 07mn                                   ├é┬▓
├é┬▓ Bit rate mode                    : Constant                                  ├é┬▓
├é┬▓ Bit rate                         : 448 Kbps                                  ├é┬▓
├é┬▓ Channel(s)                       : 6 channels                                ├é┬▓
├é┬▓ Channel positions                : Front: L C R, Surround: L R, LFE          ├é┬▓
├é┬▓ Sampling rate                    : 48.0 KHz                                  ├é┬▓
├é┬▓ Stream size                      : 407 MiB (25%)                             ├é┬▓
├é┬▓ Alignment                        : Split accross interleaves                 ├é┬▓
├é┬▓ Interleave, duration             : 80 ms (2.00 video frames)                 ├é┬▓
├é┬▓ Interleave, preload duration     : 500 ms                                    ├é┬▓
├é┬▓ Language                         : English                                   ├é┬▓
├é┬▓ Subtitles                        : English                                   ├é┬▓
├é┬▓                                                                              ├é┬▓
├é┬▓ IMDb Rating                      : 8.2/10                                    ├é┬▓
├é┬▓ IMDb URL                         : http://www.imdb.com/title/tt0405159/      ├é┬▓
├é┬▓                                                                              ├é┬▓
├é┬▓├é┬░├é┬░├é┬░├é┬░├é┬░├é┬░├é┬░├é┬░├é┬░├é┬░├é┬░├é┬░├é┬░├é┬░├é┬░├é┬░├é┬░├é┬░├é┬░├é┬░├é┬░├é┬░├é┬░├é┬░├é┬░├é┬░├é┬░├é┬░├é┬░├é┬░├é┬░├é┬░├é┬░├é┬░├é┬░├é┬░├é┬░├é┬░├é┬░├é┬░├é┬░├é┬░├é┬░├é┬░├é┬░├é┬░├é┬░├é┬░├é┬░├é┬░├é┬░├é┬░├é┬░├é┬░├é┬░├é┬░├é┬░├é┬░├é┬░├é┬░├é┬░├é┬░├é┬░├é┬░├é┬░├é┬░├é┬░├é┬░├é┬░├é┬░├é┬░├é┬░├é┬░├é┬░├é┬░├é┬░├é┬░├é┬░├é┬▓
├é┬▓                                                                              ├é┬▓
├é┬▓ Frankie Dunn, a down-on-his-luck former boxing manager who spends his        ├é┬▓
├é┬▓ twilight years of his life running a small, dilapidated gym in downtown Los  ├é┬▓
├é┬▓ Angeles. Frankie's previous career was blighted by an injury to one of his   ├é┬▓
├é┬▓ prize fighters, Scrap, who lost the sight in his right eye during a          ├é┬▓
├é┬▓ particularly brutal bout. Wary of similar occurrences being inflicted on the ├é┬▓
├é┬▓ prestigious young talent that passes before him, Frankie lets a succession   ├é┬▓
├é┬▓ of great boxers slip through his fingers. But when the brash, confident      ├é┬▓
├é┬▓ young boxer Maggie Fitzgerald strides into the gym, Frankies life is         ├é┬▓
├é┬▓ irretrievably altered.                                                       ├é┬▓
├é┬▓                                                                              ├é┬▓
├é┬▓├é┬░├é┬░├é┬░├é┬░├é┬░├é┬░├é┬░├é┬░├é┬░├é┬░├é┬░├é┬░├é┬░├é┬░├é┬░├é┬░├é┬░├é┬░├é┬░├é┬░├é┬░├é┬░├é┬░├é┬░├é┬░├é┬░├é┬░├é┬░├é┬░├é┬░├é┬░├é┬░├é┬░├é┬░├é┬░├é┬░├é┬░├é┬░├é┬░├é┬░├é┬░├é┬░├é┬░├é┬░├é┬░├é┬░├é┬░├é┬░├é┬░├é┬░├é┬░├é┬░├é┬░├é┬░├é┬░├é┬░├é┬░├é┬░├é┬░├é┬░├é┬░├é┬░├é┬░├é┬░├é┬░├é┬░├é┬░├é┬░├é┬░├é┬░├é┬░├é┬░├é┬░├é┬░├é┬░├é┬░├é┬░├é┬░├é┬▓
├é┬▓                                                                              ├é┬▓
├é┬▓ CAST:                                                                        ├é┬▓
├é┬▓                                                                              ├é┬▓
├é┬▓ Clint Eastwood.............Frankie Dunn                                      ├é┬▓
├é┬▓ Hilary Swank...............Maggie Fitzgerald                                 ├é┬▓
├é┬▓ Morgan Freeman.............Eddie Scrap-Iron Dupris                           ├é┬▓
├é┬▓ Jay Baruchel...............Danger Barch                                      ├é┬▓
├é┬▓ Mike Colter................Big Willie Little                                 ├é┬▓
├é┬▓ Lucia Rijker...............Billie 'The Blue Bear'                            ├é┬▓
├é┬▓ Brian F. O'Byrne...........Father Horvak                                     ├é┬▓  
├é┬▓                                                                              ├é┬▓
├é┬▓├é┬░├é┬░├é┬░├é┬░├é┬░├é┬░├é┬░├é┬░├é┬░├é┬░├é┬░├é┬░├é┬░├é┬░├é┬░├é┬░├é┬░├é┬░├é┬░├é┬░├é┬░├é┬░├é┬░├é┬░├é┬░├é┬░├é┬░├é┬░├é┬░├é┬░├é┬░├é┬░├é┬░├é┬░├é┬░├é┬░├é┬░├é┬░├é┬░├é┬░├é┬░├é┬░├é┬░├é┬░├é┬░├é┬░├é┬░├é┬░├é┬░├é┬░├é┬░├é┬░├é┬░├é┬░├é┬░├é┬░├é┬░├é┬░├é┬░├é┬░├é┬░├é┬░├é┬░├é┬░├é┬░├é┬░├é┬░├é┬░├é┬░├é┬░├é┬░├é┬░├é┬░├é┬░├é┬░├é┬░├é┬░├é┬░├é┬▓
├é┬▓                                                                              ├é┬▓
├é┬▓                            Please remember to seed                           ├é┬▓
├é┬▓                                                                              ├é┬▓
├é┬▓                              Standalone Enabled                              ├é┬▓
├é┬▓                                                                              ├é┬▓
├é┬▓                               www.tornster.com                               ├é┬▓
├é┬▓                                                                              ├é┬▓
├é┬▓├é┬▓├é┬▓├é┬▓├é┬▓├é┬▓├é┬▓├é┬▓├é┬▓├é┬▓├é┬▓├é┬▓├é┬▓├é┬▓├é┬▓├é┬▓├é┬▓├é┬▓├é┬▓├é┬▓├é┬▓├é┬▓├é┬▓├é┬▓├é┬▓├é┬▓├é┬▓├é┬▓├é┬▓├é┬▓├é┬▓├é┬▓├é┬▓├é┬▓├é┬▓├é┬▓├é┬▓├é┬▓├é┬▓├é┬▓├é┬▓├é┬▓├é┬▓├é┬▓├é┬▓├é┬▓├é┬▓├é┬▓├é┬▓├é┬▓├é┬▓├é┬▓├é┬▓├é┬▓├é┬▓├é┬▓├é┬▓├é┬▓├é┬▓├é┬▓├é┬▓├é┬▓├é┬▓├é┬▓├é┬▓├é┬▓├é┬▓├é┬▓├é┬▓├é┬▓├é┬▓├é┬▓├é┬▓├é┬▓├é┬▓├é┬▓├é┬▓├é┬▓├é┬▓├é┬▓